<svg width="24" height="26" viewBox="0 0 24 26" fill="none" xmlns="http://www.w3.org/2000/svg">
<path d="M5.39405 25.2215C5.39405 24.9441 5.34072 24.8055 5.23406 24.8055L4.49805 25.1575C4.49805 25.0081 4.41272 24.9015 4.24205 24.8375L3.98605 24.8055C3.81539 24.8055 3.60205 24.8801 3.34606 25.0295C3.30339 24.9228 3.25005 24.8161 3.18605 24.7095C3.12205 24.6028 3.06872 24.5068 3.02605 24.4215C2.74872 23.8881 2.47139 23.3015 2.19405 22.6615C1.93805 22.0001 1.69272 21.3708 1.45805 20.7735C1.24472 20.1761 1.07405 19.7068 0.946055 19.3655C0.860721 19.0881 0.764721 18.6721 0.658055 18.1175C0.551388 17.5628 0.444721 16.8588 0.338055 16.0055C0.572721 16.1548 0.754055 16.2295 0.882055 16.2295C1.03139 16.2295 1.17005 16.0055 1.29805 15.5575C1.36205 15.6428 1.47939 15.6855 1.65005 15.6855C1.77805 15.6855 1.87405 15.6428 1.93805 15.5575L2.45005 14.7895L3.02605 14.9815H3.05805C3.10072 14.9815 3.14339 14.9601 3.18605 14.9175C3.22872 14.8748 3.29272 14.8321 3.37806 14.7895C3.54872 14.6828 3.67672 14.6295 3.76205 14.6295L3.85806 14.6615C4.39139 14.9175 4.73272 15.3868 4.88205 16.0695C5.26605 17.6908 5.65006 18.5015 6.03406 18.5015C6.41806 18.5015 6.86606 18.0961 7.37806 17.2855C7.63406 16.8801 7.89006 16.4108 8.14606 15.8775C8.42339 15.3441 8.70072 14.7468 8.97806 14.0855C9.02072 14.3415 9.06339 14.4695 9.10606 14.4695C9.21272 14.4695 9.39406 14.2028 9.65005 13.6695C9.92739 13.1361 10.3647 12.4001 10.9621 11.4615C11.3034 10.8855 11.7301 10.2348 12.2421 9.50948C12.7754 8.78414 13.3407 8.03748 13.9381 7.26948C14.5354 6.50148 15.1114 5.77614 15.6661 5.09348C16.2421 4.41081 16.7541 3.82414 17.2021 3.33348C17.6501 2.84281 17.9807 2.52281 18.1941 2.37348C19.0047 1.81881 19.6447 1.28548 20.1141 0.773476C20.0927 0.922808 20.0607 1.06148 20.0181 1.18948C19.9967 1.29614 19.9861 1.37081 19.9861 1.41348C19.9861 1.49881 20.0287 1.54148 20.1141 1.54148L21.0101 1.09348V1.22148C21.0101 1.39214 21.0527 1.47748 21.1381 1.47748C21.2021 1.47748 21.3301 1.38148 21.5221 1.18948C21.7141 0.997476 21.8207 0.858809 21.8421 0.773476L21.7781 1.22148L22.8661 0.581476L22.6101 1.15748C22.9514 0.922809 23.1967 0.805475 23.3461 0.805475C23.4314 0.805475 23.4954 0.858809 23.5381 0.965475C23.5807 1.05081 23.6021 1.13614 23.6021 1.22148C23.6021 1.34948 23.5487 1.49881 23.4421 1.66948C23.3354 1.84014 23.1967 2.04281 23.0261 2.27748C22.8981 2.44814 22.6847 2.70414 22.3861 3.04548C22.1087 3.36548 21.6821 3.84548 21.1061 4.48548C20.5301 5.10414 19.7621 5.96814 18.8021 7.07748C18.5461 7.35481 18.1514 7.84548 17.6181 8.54948C17.0847 9.23214 16.4767 10.0321 15.7941 10.9495C15.1327 11.8455 14.4714 12.7521 13.8101 13.6695C13.1487 14.5868 12.5621 15.4188 12.0501 16.1655C11.5381 16.8908 11.1754 17.4348 10.9621 17.7975L8.97806 21.1575C8.55139 21.8828 8.19939 22.4801 7.92206 22.9495C7.64472 23.3975 7.43139 23.7068 7.28205 23.8775C6.96206 24.2615 6.61006 24.6028 6.22606 24.9015L5.93806 24.7415L5.68205 24.9015L5.39405 25.2215Z" fill="black"/>
</svg>
