<svg width="19" height="18" viewBox="0 0 19 18" fill="none" xmlns="http://www.w3.org/2000/svg">
            <path d="M0.813925 17.7978H18.6382C18.6382 16.8386 17.9587 15.4798 17.2793 14.8403C16.2471 13.8688 13.9606 13.3426 13.2429 13.1219C12.2039 12.8022 12.0307 12.0828 11.9641 11.883V10.0846C12.7633 9.16532 14.1222 7.64677 14.1222 4.68933C14.1222 1.73189 11.4444 0.133301 9.68599 0.133301C7.92755 0.133301 5.32984 1.77087 5.32984 4.92909C5.32984 7.24704 6.72869 9.33857 7.52799 10.0846V11.883C7.51467 12.0162 7.05131 12.6528 6.52878 12.922C5.21004 13.6014 3.53206 13.7621 2.17263 14.8403C1.01379 15.7595 0.800602 16.9985 0.813925 17.7978Z" fill="#5B7A98" />
        </svg>