<svg width="18" height="18" viewBox="0 0 18 18" fill="none" xmlns="http://www.w3.org/2000/svg">
            <circle cx="9.65887" cy="8.96404" r="2.28826" fill="#5B7A98" />
            <path fill-rule="evenodd" clip-rule="evenodd" d="M6.92305 11.2591C6.28601 10.7001 5.88386 9.8799 5.88386 8.96576C5.88386 8.05134 6.28626 7.2309 6.92366 6.67188H2.89457C1.62784 6.67188 0.600952 7.69876 0.600952 8.9655C0.600952 10.2322 1.62784 11.2591 2.89457 11.2591H6.92305Z" fill="#5B7A98" />
            <circle cx="15.6482" cy="2.42547" r="2.28826" fill="#5B7A98" />
            <path fill-rule="evenodd" clip-rule="evenodd" d="M12.9126 4.72054C12.2754 4.16152 11.8731 3.34121 11.8731 2.42695C11.8731 1.51265 12.2754 0.692319 12.9126 0.133301H8.88383C7.6171 0.133301 6.59021 1.16019 6.59021 2.42692C6.59021 3.69365 7.6171 4.72054 8.88383 4.72054H12.9126Z" fill="#5B7A98" />
            <circle cx="15.6482" cy="15.5021" r="2.28826" fill="#5B7A98" />
            <path fill-rule="evenodd" clip-rule="evenodd" d="M12.9128 17.7977C12.2755 17.2387 11.8731 16.4183 11.8731 15.5039C11.8731 14.5897 12.2753 13.7695 12.9124 13.2104H8.88383C7.6171 13.2104 6.59021 14.2373 6.59021 15.5041C6.59021 16.7708 7.6171 17.7977 8.88383 17.7977H12.9128ZM17.9731 15.5163C17.9732 15.5122 17.9732 15.5082 17.9732 15.5041C17.9732 15.4999 17.9732 15.4958 17.9731 15.4916C17.9732 15.4957 17.9732 15.4998 17.9732 15.5039C17.9732 15.508 17.9732 15.5122 17.9731 15.5163Z" fill="#5B7A98" />
        </svg>